<svg id="visual" viewBox="0 0 960 540" width="960" height="540" xmlns="http://www.w3.org/2000/svg" xmlns:xlink="http://www.w3.org/1999/xlink" version="1.1"><rect x="0" y="0" width="960" height="540" fill="#fffffe"></rect><defs><linearGradient id="grad1_0" x1="43.8%" y1="100%" x2="100%" y2="0%"><stop offset="14.444444444444446%" stop-color="#d1d1e9" stop-opacity="1"></stop><stop offset="85.55555555555554%" stop-color="#d1d1e9" stop-opacity="1"></stop></linearGradient></defs><defs><linearGradient id="grad1_1" x1="43.8%" y1="100%" x2="100%" y2="0%"><stop offset="14.444444444444446%" stop-color="#d1d1e9" stop-opacity="1"></stop><stop offset="85.55555555555554%" stop-color="#f7e5e4" stop-opacity="1"></stop></linearGradient></defs><defs><linearGradient id="grad1_2" x1="43.8%" y1="100%" x2="100%" y2="0%"><stop offset="14.444444444444446%" stop-color="#fffffe" stop-opacity="1"></stop><stop offset="85.55555555555554%" stop-color="#f7e5e4" stop-opacity="1"></stop></linearGradient></defs><defs><linearGradient id="grad2_0" x1="0%" y1="100%" x2="56.3%" y2="0%"><stop offset="14.444444444444446%" stop-color="#d1d1e9" stop-opacity="1"></stop><stop offset="85.55555555555554%" stop-color="#d1d1e9" stop-opacity="1"></stop></linearGradient></defs><defs><linearGradient id="grad2_1" x1="0%" y1="100%" x2="56.3%" y2="0%"><stop offset="14.444444444444446%" stop-color="#f7e5e4" stop-opacity="1"></stop><stop offset="85.55555555555554%" stop-color="#d1d1e9" stop-opacity="1"></stop></linearGradient></defs><defs><linearGradient id="grad2_2" x1="0%" y1="100%" x2="56.3%" y2="0%"><stop offset="14.444444444444446%" stop-color="#f7e5e4" stop-opacity="1"></stop><stop offset="85.55555555555554%" stop-color="#fffffe" stop-opacity="1"></stop></linearGradient></defs><g transform="translate(960, 540)"><path d="M-324 0C-322.9 -35.1 -321.7 -70.2 -308.1 -100.1C-294.5 -130 -268.5 -154.8 -243.5 -176.9C-218.6 -199.1 -194.8 -218.6 -169.3 -233C-143.8 -247.4 -116.6 -256.7 -88.1 -271.1C-59.6 -285.4 -29.8 -304.7 0 -324L0 0Z" fill="#faf3ee"></path><path d="M-216 0C-215.2 -23.4 -214.5 -46.8 -205.4 -66.7C-196.4 -86.7 -179 -103.2 -162.3 -117.9C-145.7 -132.7 -129.9 -145.7 -112.9 -155.3C-95.9 -164.9 -77.7 -171.2 -58.7 -180.7C-39.7 -190.2 -19.9 -203.1 0 -216L0 0Z" fill="#ecd9e5"></path><path d="M-108 0C-107.6 -11.7 -107.2 -23.4 -102.7 -33.4C-98.2 -43.3 -89.5 -51.6 -81.2 -59C-72.9 -66.4 -64.9 -72.9 -56.4 -77.7C-47.9 -82.5 -38.9 -85.6 -29.4 -90.4C-19.9 -95.1 -9.9 -101.6 0 -108L0 0Z" fill="#d1d1e9"></path></g><g transform="translate(0, 0)"><path d="M324 0C326.8 37.6 329.6 75.2 308.1 100.1C286.7 125 240.9 137.1 212.8 154.6C184.7 172 174.3 194.8 157.5 216.8C140.7 238.8 117.6 260 90.2 277.7C62.9 295.4 31.5 309.7 0 324L0 0Z" fill="#faf3ee"></path><path d="M216 0C217.9 25.1 219.8 50.2 205.4 66.7C191.1 83.3 160.6 91.4 141.8 103.1C123.1 114.7 116.2 129.9 105 144.5C93.8 159.2 78.4 173.3 60.2 185.1C41.9 197 21 206.5 0 216L0 0Z" fill="#ecd9e5"></path><path d="M108 0C108.9 12.5 109.9 25.1 102.7 33.4C95.6 41.7 80.3 45.7 70.9 51.5C61.6 57.3 58.1 64.9 52.5 72.3C46.9 79.6 39.2 86.7 30.1 92.6C21 98.5 10.5 103.2 0 108L0 0Z" fill="#d1d1e9"></path></g></svg>