<svg id="visual" viewBox="0 0 960 540" width="960" height="540" xmlns="http://www.w3.org/2000/svg" xmlns:xlink="http://www.w3.org/1999/xlink" version="1.1"><rect x="0" y="0" width="960" height="540" fill="#fffffe"></rect><defs><linearGradient id="grad1_0" x1="43.8%" y1="100%" x2="100%" y2="0%"><stop offset="14.444444444444446%" stop-color="#d1d1e9" stop-opacity="1"></stop><stop offset="85.55555555555554%" stop-color="#d1d1e9" stop-opacity="1"></stop></linearGradient></defs><defs><linearGradient id="grad1_1" x1="43.8%" y1="100%" x2="100%" y2="0%"><stop offset="14.444444444444446%" stop-color="#d1d1e9" stop-opacity="1"></stop><stop offset="85.55555555555554%" stop-color="#f7e5e4" stop-opacity="1"></stop></linearGradient></defs><defs><linearGradient id="grad1_2" x1="43.8%" y1="100%" x2="100%" y2="0%"><stop offset="14.444444444444446%" stop-color="#fffffe" stop-opacity="1"></stop><stop offset="85.55555555555554%" stop-color="#f7e5e4" stop-opacity="1"></stop></linearGradient></defs><defs><linearGradient id="grad2_0" x1="0%" y1="100%" x2="56.3%" y2="0%"><stop offset="14.444444444444446%" stop-color="#d1d1e9" stop-opacity="1"></stop><stop offset="85.55555555555554%" stop-color="#d1d1e9" stop-opacity="1"></stop></linearGradient></defs><defs><linearGradient id="grad2_1" x1="0%" y1="100%" x2="56.3%" y2="0%"><stop offset="14.444444444444446%" stop-color="#f7e5e4" stop-opacity="1"></stop><stop offset="85.55555555555554%" stop-color="#d1d1e9" stop-opacity="1"></stop></linearGradient></defs><defs><linearGradient id="grad2_2" x1="0%" y1="100%" x2="56.3%" y2="0%"><stop offset="14.444444444444446%" stop-color="#f7e5e4" stop-opacity="1"></stop><stop offset="85.55555555555554%" stop-color="#fffffe" stop-opacity="1"></stop></linearGradient></defs><g transform="translate(960, 540)"><path d="M-162 0C-158.9 -17.2 -155.7 -34.4 -148.4 -48.2C-141 -62 -129.5 -72.4 -121.4 -88.2C-113.3 -103.9 -108.6 -125.1 -95.2 -131.1C-81.8 -137 -59.7 -127.7 -42.3 -130.3C-25 -132.9 -12.5 -147.5 0 -162L0 0Z" fill="#faf3ee"></path><path d="M-108 0C-105.9 -11.5 -103.8 -22.9 -98.9 -32.1C-94 -41.3 -86.3 -48.3 -80.9 -58.8C-75.5 -69.3 -72.4 -83.4 -63.5 -87.4C-54.5 -91.3 -39.8 -85.1 -28.2 -86.9C-16.7 -88.6 -8.3 -98.3 0 -108L0 0Z" fill="#ecd9e5"></path><path d="M-54 0C-53 -5.7 -51.9 -11.5 -49.5 -16.1C-47 -20.7 -43.2 -24.1 -40.5 -29.4C-37.8 -34.6 -36.2 -41.7 -31.7 -43.7C-27.3 -45.7 -19.9 -42.6 -14.1 -43.4C-8.3 -44.3 -4.2 -49.2 0 -54L0 0Z" fill="#d1d1e9"></path></g><g transform="translate(0, 0)"><path d="M162 0C145.4 12.4 128.7 24.8 123.6 40.2C118.6 55.5 125.1 73.7 121.4 88.2C117.6 102.6 103.7 113.3 90.5 124.6C77.4 135.9 65 147.7 50.1 154.1C35.1 160.4 17.6 161.2 0 162L0 0Z" fill="#faf3ee"></path><path d="M108 0C96.9 8.3 85.8 16.6 82.4 26.8C79 37 83.4 49.1 80.9 58.8C78.4 68.4 69.1 75.5 60.3 83.1C51.6 90.6 43.3 98.5 33.4 102.7C23.4 106.9 11.7 107.5 0 108L0 0Z" fill="#ecd9e5"></path><path d="M54 0C48.5 4.1 42.9 8.3 41.2 13.4C39.5 18.5 41.7 24.6 40.5 29.4C39.2 34.2 34.6 37.8 30.2 41.5C25.8 45.3 21.7 49.2 16.7 51.4C11.7 53.5 5.9 53.7 0 54L0 0Z" fill="#d1d1e9"></path></g></svg>