<svg id="visual" viewBox="0 0 960 540" width="960" height="540" xmlns="http://www.w3.org/2000/svg" xmlns:xlink="http://www.w3.org/1999/xlink" version="1.1"><rect x="0" y="0" width="960" height="540" fill="#fffffe"></rect><defs><linearGradient id="grad1_0" x1="43.8%" y1="100%" x2="100%" y2="0%"><stop offset="14.444444444444446%" stop-color="#d1d1e9" stop-opacity="1"></stop><stop offset="85.55555555555554%" stop-color="#d1d1e9" stop-opacity="1"></stop></linearGradient></defs><defs><linearGradient id="grad1_1" x1="43.8%" y1="100%" x2="100%" y2="0%"><stop offset="14.444444444444446%" stop-color="#d1d1e9" stop-opacity="1"></stop><stop offset="85.55555555555554%" stop-color="#f7e5e4" stop-opacity="1"></stop></linearGradient></defs><defs><linearGradient id="grad1_2" x1="43.8%" y1="100%" x2="100%" y2="0%"><stop offset="14.444444444444446%" stop-color="#fffffe" stop-opacity="1"></stop><stop offset="85.55555555555554%" stop-color="#f7e5e4" stop-opacity="1"></stop></linearGradient></defs><defs><linearGradient id="grad2_0" x1="0%" y1="100%" x2="56.3%" y2="0%"><stop offset="14.444444444444446%" stop-color="#d1d1e9" stop-opacity="1"></stop><stop offset="85.55555555555554%" stop-color="#d1d1e9" stop-opacity="1"></stop></linearGradient></defs><defs><linearGradient id="grad2_1" x1="0%" y1="100%" x2="56.3%" y2="0%"><stop offset="14.444444444444446%" stop-color="#f7e5e4" stop-opacity="1"></stop><stop offset="85.55555555555554%" stop-color="#d1d1e9" stop-opacity="1"></stop></linearGradient></defs><defs><linearGradient id="grad2_2" x1="0%" y1="100%" x2="56.3%" y2="0%"><stop offset="14.444444444444446%" stop-color="#f7e5e4" stop-opacity="1"></stop><stop offset="85.55555555555554%" stop-color="#fffffe" stop-opacity="1"></stop></linearGradient></defs><g transform="translate(960, 540)"><path d="M-486 0C-451.1 -45.1 -416.2 -90.2 -388 -126.1C-359.9 -161.9 -338.4 -188.6 -327.7 -238.1C-316.9 -287.5 -316.8 -359.8 -285.7 -393.2C-254.6 -426.5 -192.5 -420.9 -139.7 -429.9C-86.9 -438.9 -43.4 -462.4 0 -486L0 0Z" fill="#faf3ee"></path><path d="M-324 0C-300.7 -30.1 -277.5 -60.1 -258.7 -84.1C-239.9 -108 -225.6 -125.7 -218.4 -158.7C-211.3 -191.7 -211.2 -239.9 -190.4 -262.1C-169.7 -284.4 -128.3 -280.6 -93.1 -286.6C-57.9 -292.6 -29 -308.3 0 -324L0 0Z" fill="#ecd9e5"></path><path d="M-162 0C-150.4 -15 -138.7 -30.1 -129.3 -42C-120 -54 -112.8 -62.9 -109.2 -79.4C-105.6 -95.8 -105.6 -119.9 -95.2 -131.1C-84.9 -142.2 -64.2 -140.3 -46.6 -143.3C-29 -146.3 -14.5 -154.1 0 -162L0 0Z" fill="#d1d1e9"></path></g><g transform="translate(0, 0)"><path d="M486 0C446.2 38.5 406.5 77.1 398.5 129.5C390.5 181.9 414.3 248.2 393.2 285.7C372.1 323.1 306.2 331.7 259.8 357.6C213.4 383.4 186.5 426.5 146.5 450.8C106.4 475.1 53.2 480.5 0 486L0 0Z" fill="#faf3ee"></path><path d="M324 0C297.5 25.7 271 51.4 265.7 86.3C260.3 121.3 276.2 165.5 262.1 190.4C248.1 215.4 204.1 221.2 173.2 238.4C142.3 255.6 124.3 284.4 97.6 300.5C71 316.7 35.5 320.4 0 324L0 0Z" fill="#ecd9e5"></path><path d="M162 0C148.7 12.8 135.5 25.7 132.8 43.2C130.2 60.6 138.1 82.7 131.1 95.2C124 107.7 102.1 110.6 86.6 119.2C71.1 127.8 62.2 142.2 48.8 150.3C35.5 158.4 17.7 160.2 0 162L0 0Z" fill="#d1d1e9"></path></g></svg>