<svg id="visual" viewBox="0 0 540 960" width="540" height="960" xmlns="http://www.w3.org/2000/svg" xmlns:xlink="http://www.w3.org/1999/xlink" version="1.1"><rect x="0" y="0" width="540" height="960" fill="#fffffe"></rect><defs><linearGradient id="grad1_0" x1="0%" y1="100%" x2="100%" y2="0%"><stop offset="30%" stop-color="#d1d1e9" stop-opacity="1"></stop><stop offset="70%" stop-color="#d1d1e9" stop-opacity="1"></stop></linearGradient></defs><defs><linearGradient id="grad1_1" x1="0%" y1="100%" x2="100%" y2="0%"><stop offset="30%" stop-color="#d1d1e9" stop-opacity="1"></stop><stop offset="70%" stop-color="#f7e5e4" stop-opacity="1"></stop></linearGradient></defs><defs><linearGradient id="grad1_2" x1="0%" y1="100%" x2="100%" y2="0%"><stop offset="30%" stop-color="#fffffe" stop-opacity="1"></stop><stop offset="70%" stop-color="#f7e5e4" stop-opacity="1"></stop></linearGradient></defs><defs><linearGradient id="grad2_0" x1="0%" y1="100%" x2="100%" y2="0%"><stop offset="30%" stop-color="#d1d1e9" stop-opacity="1"></stop><stop offset="70%" stop-color="#d1d1e9" stop-opacity="1"></stop></linearGradient></defs><defs><linearGradient id="grad2_1" x1="0%" y1="100%" x2="100%" y2="0%"><stop offset="30%" stop-color="#f7e5e4" stop-opacity="1"></stop><stop offset="70%" stop-color="#d1d1e9" stop-opacity="1"></stop></linearGradient></defs><defs><linearGradient id="grad2_2" x1="0%" y1="100%" x2="100%" y2="0%"><stop offset="30%" stop-color="#f7e5e4" stop-opacity="1"></stop><stop offset="70%" stop-color="#fffffe" stop-opacity="1"></stop></linearGradient></defs><g transform="translate(540, 960)"><path d="M-405 0C-386.5 -48.2 -368.1 -96.5 -350.2 -145C-332.2 -193.6 -314.8 -242.4 -282.8 -282.8C-250.9 -323.3 -204.5 -355.2 -155 -374.2C-105.4 -393.1 -52.7 -399.1 0 -405L0 0Z" fill="#faf3ee"></path><path d="M-270 0C-257.7 -32.2 -245.4 -64.3 -233.4 -96.7C-221.5 -129.1 -209.8 -161.6 -188.6 -188.6C-167.3 -215.5 -136.4 -236.8 -103.3 -249.4C-70.3 -262.1 -35.1 -266 0 -270L0 0Z" fill="#ecd9e5"></path><path d="M-135 0C-128.8 -16.1 -122.7 -32.2 -116.7 -48.3C-110.7 -64.5 -104.9 -80.8 -94.3 -94.3C-83.6 -107.8 -68.2 -118.4 -51.7 -124.7C-35.1 -131 -17.6 -133 0 -135L0 0Z" fill="#d1d1e9"></path></g><g transform="translate(0, 0)"><path d="M405 0C366.6 39.4 328.2 78.9 314.1 130.1C300 181.3 310.1 244.3 286.4 286.4C262.6 328.4 204.9 349.6 151.5 365.9C98.2 382.1 49.1 393.6 0 405L0 0Z" fill="#faf3ee"></path><path d="M270 0C244.4 26.3 218.8 52.6 209.4 86.7C200 120.9 206.8 162.9 190.9 190.9C175.1 219 136.6 233 101 243.9C65.4 254.8 32.7 262.4 0 270L0 0Z" fill="#ecd9e5"></path><path d="M135 0C122.2 13.1 109.4 26.3 104.7 43.4C100 60.4 103.4 81.4 95.5 95.5C87.5 109.5 68.3 116.5 50.5 122C32.7 127.4 16.4 131.2 0 135L0 0Z" fill="#d1d1e9"></path></g></svg>